<svg width="323" height="168" xmlns="http://www.w3.org/2000/svg" xmlns:xlink="http://www.w3.org/1999/xlink"><defs><circle id="a" cx="11" cy="11" r="11"/></defs><g fill="none" fill-rule="evenodd"><g transform="translate(1 1)"><path d="M0 0h321v166H0z" fill="#F1F3F4" stroke="#3C4043" stroke-linejoin="round"/><rect stroke="#3C4043" fill="#F8F9FA" x="45" y="37" width="268.5" height="120" rx="4"/><path d="M54 44h11v11H54z" stroke="#BDC1C6" stroke-linejoin="round"/><g transform="translate(119 43)" fill="#BDC1C6"><ellipse cx="1.5" cy="1.385" rx="1.5" ry="1.385"/><ellipse cx="1.5" cy="6" rx="1.5" ry="1.385"/><ellipse cx="1.5" cy="10.615" rx="1.5" ry="1.385"/></g><path d="M101.99 54.98c-1.677 0-3.095-.58-4.253-1.737C96.58 52.085 96 50.667 96 48.99s.579-3.095 1.737-4.253C98.895 43.58 100.313 43 101.99 43c.932 0 1.814.206 2.645.619.832.413 1.521.998 2.067 1.757V43h1.198v4.892h-4.872v-1.198h3.155a4.779 4.779 0 0 0-1.757-1.827 4.659 4.659 0 0 0-2.436-.669c-1.331 0-2.463.466-3.394 1.398-.932.931-1.398 2.063-1.398 3.394s.466 2.462 1.398 3.394c.931.932 2.063 1.398 3.394 1.398 1.025 0 1.95-.293 2.775-.879a4.64 4.64 0 0 0 1.737-2.316h1.258a5.816 5.816 0 0 1-2.146 3.175 5.848 5.848 0 0 1-3.624 1.218z" fill="#BDC1C6" fill-rule="nonzero"/><path d="M16.625 149c-.467 0-.854-.154-1.163-.463-.308-.308-.462-.695-.462-1.162v-10.75c0-.467.154-.854.462-1.163.309-.308.696-.462 1.163-.462H27.4c.45 0 .83.154 1.137.463.309.308.463.695.463 1.162v4.65l3.05-3.05v7.55l-3.05-3.05v4.65c0 .467-.154.854-.463 1.162A1.546 1.546 0 0 1 27.4 149H16.625zm0-1H27.4a.579.579 0 0 0 .425-.175.61.61 0 0 0 .175-.45v-10.75a.61.61 0 0 0-.175-.45.579.579 0 0 0-.425-.175H16.625a.61.61 0 0 0-.45.175.61.61 0 0 0-.175.45v10.75a.61.61 0 0 0 .175.45.61.61 0 0 0 .45.175zM16 148v-.175-11.2-.45V136v12zM22.625 110a2.893 2.893 0 0 1-2.125-.875 2.893 2.893 0 0 1-.875-2.125c0-.817.292-1.52.875-2.112a2.873 2.873 0 0 1 2.125-.888c.833 0 1.542.296 2.125.887.583.592.875 1.296.875 2.113 0 .833-.292 1.542-.875 2.125a2.893 2.893 0 0 1-2.125.875zm-7 7.25v-1.65c0-.417.12-.804.362-1.162a2.47 2.47 0 0 1 .963-.838c.95-.45 1.896-.787 2.838-1.012a12.17 12.17 0 0 1 2.837-.338c.95 0 1.896.112 2.838.337.941.225 1.887.563 2.837 1.013.4.2.72.48.962.838s.363.745.363 1.162v1.65h-14zm7-8.25c.55 0 1.02-.196 1.412-.588.392-.391.588-.862.588-1.412 0-.55-.196-1.02-.588-1.413a1.926 1.926 0 0 0-1.412-.587c-.55 0-1.02.196-1.412.587a1.926 1.926 0 0 0-.588 1.413c0 .55.196 1.02.588 1.412.391.392.862.588 1.412.588zm-6 7.25h12v-.65c0-.233-.07-.446-.212-.637a1.721 1.721 0 0 0-.588-.488 12.79 12.79 0 0 0-2.55-.912 11.298 11.298 0 0 0-2.65-.313c-.9 0-1.783.104-2.65.313a12.79 12.79 0 0 0-2.55.912c-.25.133-.446.296-.587.488a1.048 1.048 0 0 0-.213.637v.65zm-4.625 1h2.075V113c-.183.067-.35.133-.5.2-.15.067-.308.142-.475.225-.35.167-.62.42-.813.763A2.236 2.236 0 0 0 12 115.3v1.95zm19.175 0h2.075v-1.95c0-.4-.1-.77-.3-1.113a1.902 1.902 0 0 0-.8-.762 8.254 8.254 0 0 0-.487-.225c-.159-.067-.321-.133-.488-.2v4.25zm-15-6.85c.283 0 .52-.096.712-.288a.968.968 0 0 0 .288-.712.968.968 0 0 0-.288-.713.968.968 0 0 0-.712-.287.968.968 0 0 0-.713.287.968.968 0 0 0-.287.713c0 .283.096.52.287.712.192.192.43.288.713.288zm0 1a1.914 1.914 0 0 1-1.425-.588 1.947 1.947 0 0 1-.575-1.412c0-.55.192-1.02.575-1.413a1.914 1.914 0 0 1 1.425-.587c.55 0 1.02.196 1.413.587.391.392.587.863.587 1.413s-.196 1.02-.587 1.412a1.926 1.926 0 0 1-1.413.588zm12.9-1c.283 0 .52-.096.713-.288a.968.968 0 0 0 .287-.712.968.968 0 0 0-.287-.713.968.968 0 0 0-.713-.287.968.968 0 0 0-.712.287.968.968 0 0 0-.288.713c0 .283.096.52.288.712.191.192.429.288.712.288zm0 1c-.55 0-1.02-.196-1.412-.588a1.926 1.926 0 0 1-.588-1.412c0-.55.196-1.02.588-1.413a1.926 1.926 0 0 1 1.412-.587c.567 0 1.042.196 1.425.587.383.392.575.863.575 1.413s-.192 1.02-.575 1.412a1.914 1.914 0 0 1-1.425.588zM14 91.075v-15.45c0-.467.154-.854.463-1.163.308-.308.695-.462 1.162-.462h14.75c.467 0 .854.154 1.163.463.308.308.462.695.462 1.162v10.75c0 .467-.154.854-.462 1.162-.309.309-.696.463-1.163.463h-13.3L14 91.075zM16.375 87h14a.61.61 0 0 0 .45-.175.61.61 0 0 0 .175-.45v-10.75a.61.61 0 0 0-.175-.45.61.61 0 0 0-.45-.175h-14.75a.61.61 0 0 0-.45.175.61.61 0 0 0-.175.45v12.75L16.375 87zM15 87V75.625v-.45V75v12z" fill="#3C4043" fill-rule="nonzero"/><g transform="translate(5 40)"><rect fill="#3C4043" width="36" height="24" rx="12"/><path d="M11.535 18.222c-.441 0-.807-.145-1.098-.437-.291-.29-.437-.657-.437-1.098V6.536c0-.441.146-.807.437-1.098.291-.291.657-.437 1.098-.437h13.93c.441 0 .807.146 1.098.437.291.291.437.657.437 1.098v10.153c0 .44-.146.806-.437 1.097-.291.292-.657.437-1.098.437h-13.93zM18.5 11.73l-7.556-4.958v9.916c0 .174.056.315.166.425.11.11.252.166.425.166h13.93a.575.575 0 0 0 .425-.165.575.575 0 0 0 .166-.425V6.77L18.5 11.729zm0-1.062l7.272-4.723H11.228l7.272 4.723zm7.556-3.896l-.284-.827H11.228l-.284.827v9.916c0 .174.056.315.166.425.11.11.252.166.425.166h13.93a.575.575 0 0 0 .425-.165.575.575 0 0 0 .166-.425V6.77z" fill="#FFF" fill-rule="nonzero"/></g><path d="M54 44h11v11H54z" stroke="#3C4043" stroke-linejoin="round"/><path d="M75 47h8.5l-4 5.5z" fill="#3C4043"/><g transform="translate(119 43)" fill="#3C4043"><ellipse cx="1.5" cy="1.385" rx="1.5" ry="1.385"/><ellipse cx="1.5" cy="6" rx="1.5" ry="1.385"/><ellipse cx="1.5" cy="10.615" rx="1.5" ry="1.385"/></g><path d="M101.99 54.98c-1.677 0-3.095-.58-4.253-1.737C96.58 52.085 96 50.667 96 48.99s.579-3.095 1.737-4.253C98.895 43.58 100.313 43 101.99 43c.932 0 1.814.206 2.645.619.832.413 1.521.998 2.067 1.757V43h1.198v4.892h-4.872v-1.198h3.155a4.779 4.779 0 0 0-1.757-1.827 4.659 4.659 0 0 0-2.436-.669c-1.331 0-2.463.466-3.394 1.398-.932.931-1.398 2.063-1.398 3.394s.466 2.462 1.398 3.394c.931.932 2.063 1.398 3.394 1.398 1.025 0 1.95-.293 2.775-.879a4.64 4.64 0 0 0 1.737-2.316h1.258a5.816 5.816 0 0 1-2.146 3.175 5.848 5.848 0 0 1-3.624 1.218z" fill="#3C4043" fill-rule="nonzero"/><g stroke="#3C4043" stroke-linejoin="round"><path d="M119.257 118.9h183.486" stroke-linecap="round"/><path d="M54 113.4h11v11H54z"/><path d="M77.6 116l2.4-5.6 2.4 5.6H88l-4.8 4 1.6 5.6-4.8-3.2-4.8 3.2.8-5.6-4-3.2z" stroke-linecap="round"/><path d="M95.088 114.279l4.237 5.276-4.41 4.663 9.912.173 4.168-4.667-3.994-5.272z"/></g><g stroke="#3C4043" stroke-linejoin="round"><path d="M119.257 141.9h183.486" stroke-linecap="round"/><path d="M54 136.4h11v11H54z"/><path d="M77.6 139l2.4-5.6 2.4 5.6H88l-4.8 4 1.6 5.6-4.8-3.2-4.8 3.2.8-5.6-4-3.2z" stroke-linecap="round"/><path d="M95.088 137.279l4.237 5.276-4.41 4.663 9.912.173 4.168-4.667-3.994-5.272z"/></g><g stroke="#3C4043" stroke-linejoin="round"><path d="M119.257 95.9h183.486" stroke-linecap="round"/><path d="M54 90.4h11v11H54z"/><path d="M77.6 93l2.4-5.6 2.4 5.6H88l-4.8 4 1.6 5.6-4.8-3.2-4.8 3.2.8-5.6-4-3.2z" stroke-linecap="round"/><path d="M95.088 91.279l4.237 5.276-4.41 4.663 9.912.173 4.168-4.667L105 91.452z"/></g><g stroke="#3C4043" stroke-linejoin="round"><path d="M119.257 72.5h183.486" stroke-linecap="round"/><path d="M54 67h11v11H54z"/><path d="M77.6 69.6L80 64l2.4 5.6H88l-4.8 4 1.6 5.6L80 76l-4.8 3.2.8-5.6-4-3.2z" stroke-linecap="round"/><path d="M95.088 67.879l4.237 5.276-4.41 4.663 9.912.173 4.168-4.667L105 68.052z"/></g><g><g fill="#FFF"><path d="M46.2 11.815h1.536c.687 0 1.243.557 1.243 1.244v11.94H46.2a1.244 1.244 0 0 1-1.243-1.244V13.06c0-.687.556-1.244 1.243-1.244zM61.487 11.815h1.375c.687 0 1.244.557 1.244 1.244v10.696c0 .687-.557 1.244-1.244 1.244h-2.618V13.06c0-.687.556-1.244 1.243-1.244z" stroke="#3C4043"/><path d="M61.667 11.3a1.244 1.244 0 0 1 1.747.204l.477.604c.421.533.338 1.304-.187 1.734l-9.093 7.45-9.092-7.45a1.244 1.244 0 0 1-.187-1.734l.477-.604a1.244 1.244 0 0 1 1.747-.204l.023.018 7.032 5.831 7.033-5.83.011-.01z" stroke="#3C4043" fill-opacity=".54"/><path d="M60.244 16.759v-4.12c1.609-1.923 2.816-2.197 3.62-.824.805 1.373-.402 3.021-3.62 4.944zM48.819 16.759v-4.12c-1.61-1.923-2.817-2.197-3.621-.824-.805 1.373.402 3.021 3.62 4.944z"/></g><g stroke="#3C4043"><path d="M46.2 11.815h1.536c.687 0 1.243.557 1.243 1.244v11.94H46.2a1.244 1.244 0 0 1-1.243-1.244V13.06c0-.687.556-1.244 1.243-1.244z" fill="#8AB4F8"/><path d="M61.603 11.815h1.384c.687 0 1.243.557 1.243 1.244v10.696c0 .687-.556 1.244-1.243 1.244h-2.628V13.06c0-.687.557-1.244 1.244-1.244z" fill="#81C995"/><path d="M61.667 11.3a1.244 1.244 0 0 1 1.747.204l.477.604c.421.533.338 1.304-.187 1.734l-9.093 7.45-9.092-7.45a1.244 1.244 0 0 1-.187-1.734l.477-.604a1.244 1.244 0 0 1 1.77-.186l7.032 5.831 7.033-5.83z" fill-opacity=".54" fill="#EA4335"/><path d="M60.244 16.759v-4.12c1.609-1.923 2.816-2.197 3.62-.824.805 1.373-.402 3.021-3.62 4.944z" fill="#FCC934"/><path d="M48.819 16.759v-4.12c-1.61-1.923-2.817-2.197-3.621-.824-.805 1.373.402 3.021 3.62 4.944z" fill="#C5221F"/></g><g transform="translate(291.5 8)"><mask id="b" fill="#fff"><use xlink:href="#a"/></mask><use fill="#4285F4" xlink:href="#a"/><g mask="url(#b)"><path d="M7.694 10.87c2.433 2.65 8.318 8.384 10.858 9.695-.337-1.877 3.49-2.05 4.161-3.837.541-1.438-1.9-4.667-3.03-4.984-2.531-.71-1.315-3.497-4.239-4.07-2.239-.44-1.576-3.652-5.308-3.652-3.583 0-4.954 4.113-2.442 6.848z" fill="#3C4043"/><path d="M3.337 16.298l3.283-3.661s2.293-.492 2.474-2.933h2.135s.5 2.52 1.664 3.02l1.998 5.673" fill="#FD8060"/><path d="M3.337 16.298l3.283-3.661s2.293-.492 2.474-2.933h2.135s.187 3.043 2.788 3.043l1.7 4.89" stroke="#3C4043" stroke-width=".519" stroke-linecap="round" stroke-linejoin="round"/><path d="M4.46 19.576l.58-5.318s3.98 1.894 9.41 0v5.318" fill="#3C4043"/><path d="M4.46 19.576l.58-5.318s3.98 1.894 9.41 0v5.318" stroke="#3C4043" stroke-width=".519" stroke-linecap="round" stroke-linejoin="round"/><path d="M7.734 12.224c.237.907 1.267 2.906 2.421 4.984 1.17-1.933 2.19-3.776 2.411-4.65l.023.008c.479.171 8.127 3.038 8.127 11.002l-6.85.002.052.086-15.313-.15c0-8.27 9.129-11.282 9.129-11.282z" fill="#D2E3FC"/><path stroke="#3C4043" stroke-linecap="round" stroke-linejoin="round" d="M6.099 16.088l1.8-4.03"/><path d="M11.696 10.793s-2.054 1.675-4.003 1.358c0 0 1.02-.698 1.22-1.755l2.783.397z" fill="#3C4043"/><path d="M11.696 10.793s-2.054 1.675-4.003 1.358c0 0 1.02-.698 1.22-1.755l2.783.397z" stroke="#3C4043" stroke-width=".519" stroke-linecap="round" stroke-linejoin="round"/><path d="M12.211 9.928s1.123-.66 1.123-1.517c0-.856-.996-.134-.996-.134l-.127 1.651z" fill="#FD8060"/><path d="M12.211 9.928s1.123-.66 1.123-1.517c0-.856-.996-.134-.996-.134l-.127 1.651z" stroke="#3C4043" stroke-width=".519" stroke-linecap="round" stroke-linejoin="round"/><path d="M8.094 9.928s-1.122-.66-1.122-1.517c0-.856.995-.134.995-.134l.127 1.651z" fill="#FD8060"/><path d="M8.094 9.928s-1.122-.66-1.122-1.517c0-.856.995-.134.995-.134l.127 1.651z" stroke="#3C4043" stroke-width=".519" stroke-linecap="round" stroke-linejoin="round"/><path d="M10.16 11.38c1.404 0 2.23-1.366 2.606-3.005.376-1.64-.25-3.99-2.706-3.99-2.355 0-2.893 2.216-2.555 4.099.352 1.962 1.072 2.868 2.656 2.896" fill="#FD8060"/><path d="M10.16 11.38c1.404 0 2.23-1.366 2.606-3.005.376-1.64-.25-3.99-2.706-3.99-2.355 0-2.893 2.216-2.555 4.099.352 1.962 1.072 2.868 2.656 2.896z" stroke="#3C4043" stroke-linecap="round" stroke-linejoin="round"/><path d="M7.318 6.362c2.174 0 3.302 1.682 5.564 1.682 0 0 1.084-4.022-2.746-4.022-2.31 0-2.818 2.34-2.818 2.34" fill="#3C4043"/><path d="M7.318 6.362c2.174 0 3.302 1.682 5.564 1.682 0 0 1.084-4.022-2.746-4.022-2.31 0-2.818 2.34-2.818 2.34z" stroke="#3C4043" stroke-width=".519" stroke-linecap="round" stroke-linejoin="round"/><path stroke="#3C4043" stroke-width=".779" stroke-linecap="round" stroke-linejoin="round" d="M13.684 12.749l.489 3.986"/><path d="M7.901 12.137s-9.32 2.878-9.32 11.344" stroke="#3C4043" stroke-linecap="round" stroke-linejoin="round"/></g></g><g stroke="#3C4043" stroke-linecap="round" stroke-linejoin="round"><path d="M16 15.406h13M16 19.306h13M16 23.206h13"/></g></g></g><path d="M119 69h186v8H119z" fill="#3C4043"/><g transform="translate(74 8)" stroke="#BDC1C6"><rect fill="#FFF" x=".5" y=".5" width="139" height="23" rx="2"/><path stroke-linecap="round" stroke-linejoin="round" d="M30 12.5h42"/><g transform="translate(9 6)"><circle cx="4.941" cy="4.941" r="4.941"/><path stroke-linecap="square" d="M8.824 8.824l2.994 2.994"/></g></g><g fill-rule="nonzero"><path stroke="#3C4043" fill="#3C4043" stroke-linejoin="round" d="M214.25 81.75l21 9-7 .5 3 8-9 9z"/><path fill="#3C4043" d="M228.53 101.03l3.083-3.216 12.347 11.575-3.536 3.535z"/><path fill="#EA4336" d="M228.992 97.891l2.828-2.828 13.213 13.213-2.828 2.828z"/><path fill="#EA4336" d="M215.417 81.784l24.333 7.966-16.541 15.408z"/></g></g></svg>