<svg width="323" height="168" xmlns="http://www.w3.org/2000/svg"><g fill="none" fill-rule="evenodd"><path stroke="#3C4043" fill="#F1F3F4" stroke-linejoin="round" d="M1 1h321v166H1z"/><g fill="#FFF"><path d="M47.2 12.815h1.536c.687 0 1.243.557 1.243 1.244v11.94H47.2a1.244 1.244 0 0 1-1.243-1.244V14.06c0-.687.556-1.244 1.243-1.244zM62.487 12.815h1.375c.687 0 1.244.557 1.244 1.244v10.696c0 .687-.557 1.244-1.244 1.244h-2.618V14.06c0-.687.556-1.244 1.243-1.244z" stroke="#3C4043"/><path d="M62.667 12.3a1.244 1.244 0 0 1 1.747.204l.477.604c.421.533.338 1.304-.187 1.734l-9.093 7.45-9.092-7.45a1.244 1.244 0 0 1-.187-1.734l.477-.604a1.244 1.244 0 0 1 1.747-.204l.023.018 7.032 5.831 7.033-5.83.011-.01z" stroke="#3C4043" fill-opacity=".54"/><path d="M61.244 17.759v-4.12c1.609-1.923 2.816-2.197 3.62-.824.805 1.373-.402 3.021-3.62 4.944zM49.819 17.759v-4.12c-1.61-1.923-2.817-2.197-3.621-.824-.805 1.373.402 3.021 3.62 4.944z"/></g><g stroke="#3C4043"><path d="M47.2 12.815h1.536c.687 0 1.243.557 1.243 1.244v11.94H47.2a1.244 1.244 0 0 1-1.243-1.244V14.06c0-.687.556-1.244 1.243-1.244z" fill="#8AB4F8"/><path d="M62.603 12.815h1.384c.687 0 1.243.557 1.243 1.244v10.696c0 .687-.556 1.244-1.243 1.244h-2.628V14.06c0-.687.557-1.244 1.244-1.244z" fill="#81C995"/><path d="M62.667 12.3a1.244 1.244 0 0 1 1.747.204l.477.604c.421.533.338 1.304-.187 1.734l-9.093 7.45-9.092-7.45a1.244 1.244 0 0 1-.187-1.734l.477-.604a1.244 1.244 0 0 1 1.77-.186l7.032 5.831 7.033-5.83z" fill-opacity=".54" fill="#EA4335"/><path d="M61.244 17.759v-4.12c1.609-1.923 2.816-2.197 3.62-.824.805 1.373-.402 3.021-3.62 4.944z" fill="#FCC934"/><path d="M49.819 17.759v-4.12c-1.61-1.923-2.817-2.197-3.621-.824-.805 1.373.402 3.021 3.62 4.944z" fill="#C5221F"/></g><g stroke="#BDC1C6" stroke-linecap="round" stroke-linejoin="round"><path d="M18 16.406h13M18 20.306h13M18 24.206h13"/></g><g transform="translate(74 8)" stroke="#BDC1C6"><rect x=".5" y=".5" width="139" height="23" rx="2"/><g transform="translate(9 6)"><circle cx="4.941" cy="4.941" r="4.941"/><path stroke-linecap="square" d="M8.824 8.824l2.994 2.994"/></g></g><g transform="translate(46 38)"><rect stroke="#BDC1C6" fill="#F8F9FA" width="268.5" height="120" rx="4"/><g stroke="#BDC1C6" stroke-linejoin="round"><path d="M74.257 35.5h183.486" stroke-linecap="round"/><path d="M9 30h11v11H9z"/><path d="M32.6 32.6L35 27l2.4 5.6H43l-4.8 4 1.6 5.6L35 39l-4.8 3.2.8-5.6-4-3.2z" stroke-linecap="round"/><path d="M50.088 30.879l4.237 5.276-4.41 4.663 9.912.173 4.168-4.667L60 31.052z"/><g><path d="M74.257 58.7h183.486" stroke-linecap="round"/><path d="M9 53.2h11v11H9z"/><path d="M32.6 55.8l2.4-5.6 2.4 5.6H43l-4.8 4 1.6 5.6-4.8-3.2-4.8 3.2.8-5.6-4-3.2z" stroke-linecap="round"/><path d="M50.088 54.079l4.237 5.276-4.41 4.663 9.912.173 4.168-4.667L60 54.252z"/></g><g><path d="M74.257 81.9h183.486" stroke-linecap="round"/><path d="M9 76.4h11v11H9z"/><path d="M32.6 79l2.4-5.6 2.4 5.6H43l-4.8 4 1.6 5.6-4.8-3.2-4.8 3.2.8-5.6-4-3.2z" stroke-linecap="round"/><path d="M50.088 77.279l4.237 5.276-4.41 4.663 9.912.173 4.168-4.667L60 77.452z"/></g><g><path d="M74.257 105.1h183.486" stroke-linecap="round"/><path d="M9 99.6h11v11H9z"/><path d="M32.6 102.2l2.4-5.6 2.4 5.6H43l-4.8 4 1.6 5.6-4.8-3.2-4.8 3.2.8-5.6-4-3.2z" stroke-linecap="round"/><path d="M50.088 100.479l4.237 5.276-4.41 4.663 9.912.173 4.168-4.667L60 100.652z"/></g></g><path d="M9 7h11v11H9z" stroke="#BDC1C6" stroke-linejoin="round"/><path d="M30 10h8.5l-4 5.5z" stroke="#BDC1C6" stroke-linecap="round" stroke-linejoin="round"/><g transform="translate(74 6)" fill="#BDC1C6"><ellipse cx="1.5" cy="1.385" rx="1.5" ry="1.385"/><ellipse cx="1.5" cy="6" rx="1.5" ry="1.385"/><ellipse cx="1.5" cy="10.615" rx="1.5" ry="1.385"/></g><path d="M56.99 17.98c-1.677 0-3.095-.58-4.253-1.737C51.58 15.085 51 13.667 51 11.99s.579-3.095 1.737-4.253C53.895 6.58 55.313 6 56.99 6c.932 0 1.814.206 2.645.619.832.413 1.521.998 2.067 1.757V6H62.9v4.892h-4.872V9.694h3.155a4.779 4.779 0 0 0-1.757-1.827 4.659 4.659 0 0 0-2.436-.669c-1.331 0-2.463.466-3.394 1.398-.932.931-1.398 2.063-1.398 3.394s.466 2.462 1.398 3.394c.931.932 2.063 1.398 3.394 1.398 1.025 0 1.95-.293 2.775-.879a4.64 4.64 0 0 0 1.737-2.316h1.258a5.816 5.816 0 0 1-2.146 3.175 5.848 5.848 0 0 1-3.624 1.218z" fill="#BDC1C6" fill-rule="nonzero"/></g><g fill="#BDC1C6" fill-rule="nonzero"><path d="M17.625 150c-.467 0-.854-.154-1.163-.463-.308-.308-.462-.695-.462-1.162v-10.75c0-.467.154-.854.462-1.163.309-.308.696-.462 1.163-.462H28.4c.45 0 .83.154 1.137.463.309.308.463.695.463 1.162v4.65l3.05-3.05v7.55l-3.05-3.05v4.65c0 .467-.154.854-.463 1.162A1.546 1.546 0 0 1 28.4 150H17.625zm0-1H28.4a.579.579 0 0 0 .425-.175.61.61 0 0 0 .175-.45v-10.75a.61.61 0 0 0-.175-.45.579.579 0 0 0-.425-.175H17.625a.61.61 0 0 0-.45.175.61.61 0 0 0-.175.45v10.75a.61.61 0 0 0 .175.45.61.61 0 0 0 .45.175zM17 149v-.175-11.2-.45V137v12z"/></g><g fill="#BDC1C6" fill-rule="nonzero"><path d="M23.625 111a2.893 2.893 0 0 1-2.125-.875 2.893 2.893 0 0 1-.875-2.125c0-.817.292-1.52.875-2.112a2.873 2.873 0 0 1 2.125-.888c.833 0 1.542.296 2.125.887.583.592.875 1.296.875 2.113 0 .833-.292 1.542-.875 2.125a2.893 2.893 0 0 1-2.125.875zm-7 7.25v-1.65c0-.417.12-.804.362-1.162a2.47 2.47 0 0 1 .963-.838c.95-.45 1.896-.787 2.838-1.012a12.17 12.17 0 0 1 2.837-.338c.95 0 1.896.112 2.838.337.941.225 1.887.563 2.837 1.013.4.2.72.48.962.838s.363.745.363 1.162v1.65h-14zm7-8.25c.55 0 1.02-.196 1.412-.588.392-.391.588-.862.588-1.412 0-.55-.196-1.02-.588-1.413a1.926 1.926 0 0 0-1.412-.587c-.55 0-1.02.196-1.412.587a1.926 1.926 0 0 0-.588 1.413c0 .55.196 1.02.588 1.412.391.392.862.588 1.412.588zm-6 7.25h12v-.65c0-.233-.07-.446-.212-.637a1.721 1.721 0 0 0-.588-.488 12.79 12.79 0 0 0-2.55-.912 11.298 11.298 0 0 0-2.65-.313c-.9 0-1.783.104-2.65.313a12.79 12.79 0 0 0-2.55.912c-.25.133-.446.296-.587.488a1.048 1.048 0 0 0-.213.637v.65zm-4.625 1h2.075V114c-.183.067-.35.133-.5.2-.15.067-.308.142-.475.225-.35.167-.62.42-.813.763A2.236 2.236 0 0 0 13 116.3v1.95zm19.175 0h2.075v-1.95c0-.4-.1-.77-.3-1.113a1.902 1.902 0 0 0-.8-.762 8.254 8.254 0 0 0-.487-.225c-.159-.067-.321-.133-.488-.2v4.25zm-15-6.85c.283 0 .52-.096.712-.288a.968.968 0 0 0 .288-.712.968.968 0 0 0-.288-.713.968.968 0 0 0-.712-.287.968.968 0 0 0-.713.287.968.968 0 0 0-.287.713c0 .283.096.52.287.712.192.192.43.288.713.288zm0 1a1.914 1.914 0 0 1-1.425-.588 1.947 1.947 0 0 1-.575-1.412c0-.55.192-1.02.575-1.413a1.914 1.914 0 0 1 1.425-.587c.55 0 1.02.196 1.412.587.392.392.588.863.588 1.413s-.196 1.02-.588 1.412a1.926 1.926 0 0 1-1.412.588zm12.9-1c.283 0 .52-.096.712-.288a.968.968 0 0 0 .288-.712.968.968 0 0 0-.288-.713.968.968 0 0 0-.712-.287.968.968 0 0 0-.713.287.968.968 0 0 0-.287.713c0 .283.096.52.287.712.192.192.43.288.713.288zm0 1c-.55 0-1.02-.196-1.413-.588a1.926 1.926 0 0 1-.587-1.412c0-.55.196-1.02.587-1.413a1.926 1.926 0 0 1 1.413-.587c.567 0 1.042.196 1.425.587.383.392.575.863.575 1.413s-.192 1.02-.575 1.412a1.914 1.914 0 0 1-1.425.588z"/></g><g fill="#BDC1C6" fill-rule="nonzero"><path d="M16.625 60c-.467 0-.854-.154-1.163-.463-.308-.308-.462-.695-.462-1.162v-10.75c0-.467.154-.854.463-1.163.308-.308.695-.462 1.162-.462h14.75c.467 0 .854.154 1.163.463.308.308.462.695.462 1.162v10.75c0 .467-.154.854-.462 1.162-.309.309-.696.463-1.163.463h-14.75zM24 53.125l-8-5.25v10.5a.61.61 0 0 0 .175.45.61.61 0 0 0 .45.175h14.75a.61.61 0 0 0 .45-.175.61.61 0 0 0 .175-.45v-10.5l-8 5.25zM24 52l7.7-5H16.3l7.7 5zm-8-4.125V47v11.375a.61.61 0 0 0 .175.45.61.61 0 0 0 .45.175H16v-.175-10.95z"/></g><g fill="#BDC1C6" fill-rule="nonzero"><path d="M15 92.075v-15.45c0-.467.154-.854.463-1.163.308-.308.695-.462 1.162-.462h14.75c.467 0 .854.154 1.163.463.308.308.462.695.462 1.162v10.75c0 .467-.154.854-.462 1.162-.309.309-.696.463-1.163.463h-13.3L15 92.075zM17.375 88h14a.61.61 0 0 0 .45-.175.61.61 0 0 0 .175-.45v-10.75a.61.61 0 0 0-.175-.45.61.61 0 0 0-.45-.175h-14.75a.61.61 0 0 0-.45.175.61.61 0 0 0-.175.45v12.75L17.375 88zM16 88V76.625v-.45V76v12z"/></g><g><g transform="translate(74 8)"><rect stroke="#3C4043" fill="#FFF" x=".5" y=".5" width="139" height="23" rx="2"/><path stroke="#3C4043" stroke-linecap="round" stroke-linejoin="round" d="M30 12.5h42"/><g transform="translate(9 6)" stroke="#3C4043"><circle cx="4.941" cy="4.941" r="4.941"/><path stroke-linecap="square" d="M8.824 8.824l2.994 2.994"/></g><path d="M116 18.118v-.942h4.706v.942H116zm0-11.294v-.942h8.47v.942H116zM123.53 20v-4.706h.94v1.882H132v.942h-7.53V20h-.94zm-3.765-5.647V12.47H116v-.942h3.765V9.647h.94v4.706h-.94zm3.764-1.882v-.942H132v.942h-8.47zm3.765-3.765V4h.941v1.882H132v.942h-3.765v1.882h-.94z" fill="#3C4043" fill-rule="nonzero"/></g></g><g fill-rule="nonzero"><path stroke="#3C4043" fill="#3C4043" stroke-linejoin="round" d="M207.25 29.75l21 9-7 .5 3 8-9 9z"/><path fill="#3C4043" d="M221.53 49.03l3.083-3.216 12.347 11.575-3.536 3.535z"/><path fill="#EA4336" d="M221.992 45.891l2.828-2.828 13.213 13.213-2.828 2.828z"/><path fill="#EA4336" d="M208.417 29.784l24.333 7.966-16.541 15.408z"/></g></g></svg>