<svg width="323" height="168" xmlns="http://www.w3.org/2000/svg"><g fill="none" fill-rule="evenodd"><g transform="translate(1 1)"><path d="M0 0h321v166H0z" fill="#F1F3F4" stroke="#3C4043" stroke-linejoin="round"/><rect stroke="#3C4043" fill="#F8F9FA" x="45" y="37" width="268.5" height="120" rx="4"/><path d="M54 44h11v11H54z" stroke="#BDC1C6" stroke-linejoin="round"/><path d="M16.625 149c-.467 0-.854-.154-1.163-.463-.308-.308-.462-.695-.462-1.162v-10.75c0-.467.154-.854.462-1.163.309-.308.696-.462 1.163-.462H27.4c.45 0 .83.154 1.137.463.309.308.463.695.463 1.162v4.65l3.05-3.05v7.55l-3.05-3.05v4.65c0 .467-.154.854-.463 1.162A1.546 1.546 0 0 1 27.4 149H16.625zm0-1H27.4a.579.579 0 0 0 .425-.175.61.61 0 0 0 .175-.45v-10.75a.61.61 0 0 0-.175-.45.579.579 0 0 0-.425-.175H16.625a.61.61 0 0 0-.45.175.61.61 0 0 0-.175.45v10.75a.61.61 0 0 0 .175.45.61.61 0 0 0 .45.175zM16 148v-.175-11.2-.45V136v12zM22.625 110a2.893 2.893 0 0 1-2.125-.875 2.893 2.893 0 0 1-.875-2.125c0-.817.292-1.52.875-2.112a2.873 2.873 0 0 1 2.125-.888c.833 0 1.542.296 2.125.887.583.592.875 1.296.875 2.113 0 .833-.292 1.542-.875 2.125a2.893 2.893 0 0 1-2.125.875zm-7 7.25v-1.65c0-.417.12-.804.362-1.162a2.47 2.47 0 0 1 .963-.838c.95-.45 1.896-.787 2.838-1.012a12.17 12.17 0 0 1 2.837-.338c.95 0 1.896.112 2.838.337.941.225 1.887.563 2.837 1.013.4.2.72.48.962.838s.363.745.363 1.162v1.65h-14zm7-8.25c.55 0 1.02-.196 1.412-.588.392-.391.588-.862.588-1.412 0-.55-.196-1.02-.588-1.413a1.926 1.926 0 0 0-1.412-.587c-.55 0-1.02.196-1.412.587a1.926 1.926 0 0 0-.588 1.413c0 .55.196 1.02.588 1.412.391.392.862.588 1.412.588zm-6 7.25h12v-.65c0-.233-.07-.446-.212-.637a1.721 1.721 0 0 0-.588-.488 12.79 12.79 0 0 0-2.55-.912 11.298 11.298 0 0 0-2.65-.313c-.9 0-1.783.104-2.65.313a12.79 12.79 0 0 0-2.55.912c-.25.133-.446.296-.587.488a1.048 1.048 0 0 0-.213.637v.65zm-4.625 1h2.075V113c-.183.067-.35.133-.5.2-.15.067-.308.142-.475.225-.35.167-.62.42-.813.763A2.236 2.236 0 0 0 12 115.3v1.95zm19.175 0h2.075v-1.95c0-.4-.1-.77-.3-1.113a1.902 1.902 0 0 0-.8-.762 8.254 8.254 0 0 0-.487-.225c-.159-.067-.321-.133-.488-.2v4.25zm-15-6.85c.283 0 .52-.096.712-.288a.968.968 0 0 0 .288-.712.968.968 0 0 0-.288-.713.968.968 0 0 0-.712-.287.968.968 0 0 0-.713.287.968.968 0 0 0-.287.713c0 .283.096.52.287.712.192.192.43.288.713.288zm0 1a1.914 1.914 0 0 1-1.425-.588 1.947 1.947 0 0 1-.575-1.412c0-.55.192-1.02.575-1.413a1.914 1.914 0 0 1 1.425-.587c.55 0 1.02.196 1.413.587.391.392.587.863.587 1.413s-.196 1.02-.587 1.412a1.926 1.926 0 0 1-1.413.588zm12.9-1c.283 0 .52-.096.713-.288a.968.968 0 0 0 .287-.712.968.968 0 0 0-.287-.713.968.968 0 0 0-.713-.287.968.968 0 0 0-.712.287.968.968 0 0 0-.288.713c0 .283.096.52.288.712.191.192.429.288.712.288zm0 1c-.55 0-1.02-.196-1.412-.588a1.926 1.926 0 0 1-.588-1.412c0-.55.196-1.02.588-1.413a1.926 1.926 0 0 1 1.412-.587c.567 0 1.042.196 1.425.587.383.392.575.863.575 1.413s-.192 1.02-.575 1.412a1.914 1.914 0 0 1-1.425.588zM14 91.075v-15.45c0-.467.154-.854.463-1.163.308-.308.695-.462 1.162-.462h14.75c.467 0 .854.154 1.163.463.308.308.462.695.462 1.162v10.75c0 .467-.154.854-.462 1.162-.309.309-.696.463-1.163.463h-13.3L14 91.075zM16.375 87h14a.61.61 0 0 0 .45-.175.61.61 0 0 0 .175-.45v-10.75a.61.61 0 0 0-.175-.45.61.61 0 0 0-.45-.175h-14.75a.61.61 0 0 0-.45.175.61.61 0 0 0-.175.45v12.75L16.375 87zM15 87V75.625v-.45V75v12z" fill="#3C4043" fill-rule="nonzero"/><g transform="translate(5 40)"><rect fill="#3C4043" width="36" height="24" rx="12"/><path d="M11.535 18.222c-.441 0-.807-.145-1.098-.437-.291-.29-.437-.657-.437-1.098V6.536c0-.441.146-.807.437-1.098.291-.291.657-.437 1.098-.437h13.93c.441 0 .807.146 1.098.437.291.291.437.657.437 1.098v10.153c0 .44-.146.806-.437 1.097-.291.292-.657.437-1.098.437h-13.93zM18.5 11.73l-7.556-4.958v9.916c0 .174.056.315.166.425.11.11.252.166.425.166h13.93a.575.575 0 0 0 .425-.165.575.575 0 0 0 .166-.425V6.77L18.5 11.729zm0-1.062l7.272-4.723H11.228l7.272 4.723zm7.556-3.896l-.284-.827H11.228l-.284.827v9.916c0 .174.056.315.166.425.11.11.252.166.425.166h13.93a.575.575 0 0 0 .425-.165.575.575 0 0 0 .166-.425V6.77z" fill="#FFF" fill-rule="nonzero"/></g><path d="M54 44h11v11H54z" stroke="#3C4043" stroke-linejoin="round"/><path stroke="#3C4043" stroke-width="2" stroke-linecap="square" d="M56.5 49.5h6"/><path d="M75 47h8.5l-4 5.5z" fill="#3C4043"/><g opacity=".24" stroke="#3C4043" stroke-linejoin="round"><path d="M119.257 118.9h183.486" stroke-linecap="round"/><path d="M54 113.4h11v11H54z"/><path d="M77.6 116l2.4-5.6 2.4 5.6H88l-4.8 4 1.6 5.6-4.8-3.2-4.8 3.2.8-5.6-4-3.2z" stroke-linecap="round"/><path d="M95.088 114.279l4.237 5.276-4.41 4.663 9.912.173 4.168-4.667-3.994-5.272z"/></g><g opacity=".24" stroke="#3C4043" stroke-linejoin="round"><path d="M119.257 95.9h183.486" stroke-linecap="round"/><path d="M54 90.4h11v11H54z"/><path d="M77.6 93l2.4-5.6 2.4 5.6H88l-4.8 4 1.6 5.6-4.8-3.2-4.8 3.2.8-5.6-4-3.2z" stroke-linecap="round"/><path d="M95.088 91.279l4.237 5.276-4.41 4.663 9.912.173 4.168-4.667L105 91.452z"/></g><g><path d="M119 140h96v4h-96z" fill="#3C4043"/><path d="M77.9 139.158L80 134l2.1 5.158H87l-4.2 3.684L84.2 148l-4.2-2.947L75.8 148l.7-5.158-3.5-2.947z" fill="#FBBC04" stroke="#3C4043" stroke-linecap="round" stroke-linejoin="round"/><path stroke="#3C4043" fill="#FBBC04" stroke-linejoin="round" d="M95.143 137.479l4.037 5.276-4.202 4.663 9.443.173 3.97-4.667-3.804-5.272z"/><path d="M54.719 148a1.182 1.182 0 0 1-1.219-1.219v-9.562A1.182 1.182 0 0 1 54.719 136h9.562a1.182 1.182 0 0 1 1.219 1.219v9.562A1.182 1.182 0 0 1 64.281 148H54.72zm0-.75h9.562c.138 0 .25-.044.338-.131a.457.457 0 0 0 .131-.338v-9.562a.457.457 0 0 0-.131-.338.457.457 0 0 0-.338-.131H54.72a.457.457 0 0 0-.338.131.457.457 0 0 0-.131.338v9.562c0 .138.044.25.131.338.088.087.2.131.338.131zm3.731-2.625l4.8-4.8-.525-.525-4.275 4.275-2.138-2.138-.524.525 2.662 2.663zm-3.731 2.625a.457.457 0 0 1-.338-.131.457.457 0 0 1-.131-.338v-9.562c0-.138.044-.25.131-.338a.457.457 0 0 1 .338-.131h9.562c.138 0 .25.044.338.131.087.088.131.2.131.338v9.562c0 .138-.044.25-.131.338a.457.457 0 0 1-.338.131H54.72z" fill="#3C4043" fill-rule="nonzero"/><path d="M298.839 144.983l.544-.544-2.994-2.995v-3.733h-.778v4.045l3.228 3.227zM296 148.6a6.772 6.772 0 0 1-2.732-.554 7.115 7.115 0 0 1-2.217-1.497 7.115 7.115 0 0 1-1.497-2.217A6.772 6.772 0 0 1 289 141.6c0-.972.185-1.883.554-2.732.37-.849.869-1.588 1.497-2.217a7.115 7.115 0 0 1 2.217-1.497c.85-.37 1.76-.554 2.732-.554.972 0 1.883.185 2.732.554.849.37 1.588.869 2.217 1.497a7.115 7.115 0 0 1 1.497 2.217c.37.85.554 1.76.554 2.732 0 .972-.185 1.883-.554 2.732a7.115 7.115 0 0 1-1.497 2.217 7.115 7.115 0 0 1-2.217 1.497c-.85.37-1.76.554-2.732.554zm0-.778c1.724 0 3.192-.606 4.404-1.818 1.212-1.212 1.818-2.68 1.818-4.404 0-1.724-.606-3.192-1.818-4.404-1.212-1.212-2.68-1.818-4.404-1.818-1.724 0-3.192.606-4.404 1.818-1.212 1.212-1.818 2.68-1.818 4.404 0 1.724.606 3.192 1.818 4.404 1.212 1.212 2.68 1.818 4.404 1.818zM267.354 148.267c-.389 0-.712-.129-.969-.386a1.314 1.314 0 0 1-.385-.969v-8.958a1.314 1.314 0 0 1 1.354-1.354h12.292a1.314 1.314 0 0 1 1.354 1.354v8.958a1.314 1.314 0 0 1-1.354 1.354h-12.292zm6.146-5.73l-6.667-4.375v8.75c0 .153.049.278.146.375a.508.508 0 0 0 .375.146h12.292a.508.508 0 0 0 .375-.146.508.508 0 0 0 .146-.375v-8.75l-6.667 4.375zm0-.937l6.417-4.167h-12.834l6.417 4.167zm-6.667-3.438v-.729 9.48c0 .152.049.277.146.374a.508.508 0 0 0 .375.146h-.52v-.146-9.125z" opacity=".24" fill="#3C4043" fill-rule="nonzero"/><path d="M248.25 149.121a1.351 1.351 0 0 1-1.393-1.393v-10.607H246v-.857h3.429v-.664h5.142v.664H258v.857h-.857v10.608c0 .4-.132.732-.397.996a1.351 1.351 0 0 1-.996.396h-7.5zm0-.857h7.5c.157 0 .286-.05.386-.15.1-.1.15-.228.15-.385V137.12h-8.572v10.608c0 .157.05.285.15.385.1.1.229.15.386.15zm1.864-1.714h.857v-7.714h-.857v7.714zm2.915 0h.857v-7.714h-.857v7.714zm-5.315-9.429v10.608c0 .157.05.285.15.385.1.1.229.15.386.15h-.536v-.15-10.993zM225.422 148.725a1.38 1.38 0 0 1-1.017-.405 1.38 1.38 0 0 1-.405-1.017v-9.384c0-.146.018-.281.055-.405.036-.124.09-.237.164-.339l1.094-1.29a.887.887 0 0 1 .35-.22c.13-.043.27-.065.415-.065h9.844c.146 0 .284.015.416.044.13.029.247.11.35.24l1.05 1.291a.794.794 0 0 1 .207.34c.037.123.055.258.055.404v9.384c0 .408-.135.748-.405 1.017a1.38 1.38 0 0 1-1.017.405h-11.156zm-.197-11.375h11.55l-.744-.875H225.97l-.744.875zm.197 10.5h11.156a.525.525 0 0 0 .383-.164.525.525 0 0 0 .164-.383v-9.078h-12.25v9.078c0 .146.055.274.164.383.11.11.237.164.383.164zm5.578-1.575l2.887-2.91-.612-.612-1.838 1.838v-4.113h-.875v4.113l-1.837-1.838-.613.613 2.888 2.909zm-6.125 1.575v-.164V138.225 147.85z" fill="#3C4043" fill-rule="nonzero"/><g fill="#3C4043" fill-rule="nonzero"><path d="M118.25 57.121a1.351 1.351 0 0 1-1.393-1.393V45.122H116v-.857h3.429V43.6h5.142v.664H128v.857h-.857V55.73c0 .4-.132.732-.397.996a1.351 1.351 0 0 1-.996.396h-7.5zm0-.857h7.5c.157 0 .286-.05.386-.15.1-.1.15-.228.15-.385V45.12h-8.572V55.73c0 .157.05.285.15.385.1.1.229.15.386.15zm1.864-1.714h.857v-7.714h-.857v7.714zm2.915 0h.857v-7.714h-.857v7.714zm-5.315-9.429V55.73c0 .157.05.285.15.385.1.1.229.15.386.15h-.536v-.15-10.993z"/></g><g fill="#3C4043" fill-rule="nonzero"><path d="M95.422 56.725a1.38 1.38 0 0 1-1.017-.405A1.38 1.38 0 0 1 94 55.303V45.92c0-.146.018-.281.055-.405.036-.124.09-.237.164-.339l1.094-1.29a.887.887 0 0 1 .35-.22c.13-.043.27-.065.415-.065h9.844c.146 0 .284.015.416.044.13.029.247.11.35.24l1.05 1.291a.794.794 0 0 1 .207.34c.037.123.055.258.055.404v9.384c0 .408-.135.748-.405 1.017a1.38 1.38 0 0 1-1.017.405H95.422zm-.197-11.375h11.55l-.744-.875H95.97l-.744.875zm.197 10.5h11.156a.525.525 0 0 0 .383-.164.525.525 0 0 0 .164-.383v-9.078h-12.25v9.078c0 .146.055.274.164.383.11.11.237.164.383.164zM101 54.275l2.887-2.91-.612-.612-1.838 1.838v-4.113h-.874v4.113l-1.838-1.838-.612.613L101 54.275zm-6.125 1.575v-.164V46.225 55.85z"/></g></g></g><g transform="translate(74 8)" stroke="#BDC1C6"><rect x=".5" y=".5" width="139" height="23" rx="2"/><g transform="translate(9 6)"><circle cx="4.941" cy="4.941" r="4.941"/><path stroke-linecap="square" d="M8.824 8.824l2.994 2.994"/></g></g><path fill="#D2E3FC" d="M46.5 62h267v23h-267z"/><g stroke="#3C4043" stroke-linejoin="round"><path d="M120.257 73.5h183.486" stroke-linecap="round"/><path d="M55 68h11v11H55z"/><path d="M78.6 70.6L81 65l2.4 5.6H89l-4.8 4 1.6 5.6L81 77l-4.8 3.2.8-5.6-4-3.2z" stroke-linecap="round"/><path d="M96.088 68.879l4.237 5.276-4.41 4.663 9.912.173 4.168-4.667L106 69.052z"/></g><g fill-rule="nonzero"><path stroke="#3C4043" fill="#3C4043" stroke-linejoin="round" d="M68.75 83.25l21 9-7 .5 3 8-9 9z"/><path fill="#3C4043" d="M83.03 102.53l3.083-3.216 12.347 11.575-3.536 3.535z"/><path fill="#EA4336" d="M83.492 99.391l2.828-2.828 13.213 13.213-2.828 2.828z"/><path fill="#EA4336" d="M69.917 83.284L94.25 91.25l-16.541 15.408z"/></g><path d="M61.325 77.3L56 71.975l1.05-1.075 4.275 4.275L70.5 66l1.05 1.075z" fill="#041E49" fill-rule="nonzero"/><g fill="#FFF"><path d="M47.2 12.815h1.536c.687 0 1.243.557 1.243 1.244v11.94H47.2a1.244 1.244 0 0 1-1.243-1.244V14.06c0-.687.556-1.244 1.243-1.244zM62.487 12.815h1.375c.687 0 1.244.557 1.244 1.244v10.696c0 .687-.557 1.244-1.244 1.244h-2.618V14.06c0-.687.556-1.244 1.243-1.244z" stroke="#3C4043"/><path d="M62.667 12.3a1.244 1.244 0 0 1 1.747.204l.477.604c.421.533.338 1.304-.187 1.734l-9.093 7.45-9.092-7.45a1.244 1.244 0 0 1-.187-1.734l.477-.604a1.244 1.244 0 0 1 1.747-.204l.023.018 7.032 5.831 7.033-5.83.011-.01z" stroke="#3C4043" fill-opacity=".54"/><path d="M61.244 17.759v-4.12c1.609-1.923 2.816-2.197 3.62-.824.805 1.373-.402 3.021-3.62 4.944zM49.819 17.759v-4.12c-1.61-1.923-2.817-2.197-3.621-.824-.805 1.373.402 3.021 3.62 4.944z"/></g><g stroke="#3C4043"><path d="M47.2 12.815h1.536c.687 0 1.243.557 1.243 1.244v11.94H47.2a1.244 1.244 0 0 1-1.243-1.244V14.06c0-.687.556-1.244 1.243-1.244z" fill="#8AB4F8"/><path d="M62.603 12.815h1.384c.687 0 1.243.557 1.243 1.244v10.696c0 .687-.556 1.244-1.243 1.244h-2.628V14.06c0-.687.557-1.244 1.244-1.244z" fill="#81C995"/><path d="M62.667 12.3a1.244 1.244 0 0 1 1.747.204l.477.604c.421.533.338 1.304-.187 1.734l-9.093 7.45-9.092-7.45a1.244 1.244 0 0 1-.187-1.734l.477-.604a1.244 1.244 0 0 1 1.77-.186l7.032 5.831 7.033-5.83z" fill-opacity=".54" fill="#EA4335"/><path d="M61.244 17.759v-4.12c1.609-1.923 2.816-2.197 3.62-.824.805 1.373-.402 3.021-3.62 4.944z" fill="#FCC934"/><path d="M49.819 17.759v-4.12c-1.61-1.923-2.817-2.197-3.621-.824-.805 1.373.402 3.021 3.62 4.944z" fill="#C5221F"/></g><g stroke="#BDC1C6" stroke-linecap="round" stroke-linejoin="round"><path d="M18 16.406h13M18 20.306h13M18 24.206h13"/></g></g></svg>